<svg class="bodyHeight" width="100%" height="1400px" version="1.1" xmlns="http://www.w3.org/2000/svg" xmlns:xlink="http://www.w3.org/1999/xlink">
                    <defs>
                        <linearGradient x1="28.6556152%" y1="64.1802176%" x2="97.0566628%" y2="64.1802176%" id="linearGradient-12">
                            <stop stop-color="#681BCA" stop-opacity="0.3" offset="0%"></stop>
                            <stop stop-color="#6917AB" offset="100%"></stop>
                        </linearGradient>
                    </defs>
                    <g id="Page-1sd" stroke="none" stroke-width="1" fill="none" fill-rule="evenodd" opacity="0.600000024">
                        <g id="Artboard2" transform="translate(-118.000000, 0.000000)" fill="url(#linearGradient-12)">
                            <path d="M437.134929,346.139764 C690.064059,353.266063 741.661219,404.046064 819.726234,462.678387 C1039.92267,628.061416 1167.63047,531.60801 1291.77234,471.938186 C1341.1879,448.186184 1392.053,423.907142 1584.90884,400.694149 C1737.60949,382.314415 2018.00678,352.334035 2038,350.968186 C2038,975.829191 2038,1288.25969 2038,1288.25969 C1957.32037,1320.54967 1848.54422,1329.12585 1711.67158,1313.98821 C1506.36261,1291.28177 1305.49259,1224.15579 1161.39968,1224.15579 C1017.30678,1224.15579 1044.52674,1347.09578 793.727692,1377.27956 C626.528325,1397.40207 401.285761,1404.78537 118,1399.42944 L118,0 C263.892473,88.0861329 184.205799,339.013465 437.134929,346.139764 Z" id="Path-62111"></path>
                        </g>
                    </g>
                </svg>