<?xml version="1.0" encoding="utf-8"?>
<!-- Generator: Adobe Illustrator 24.0.0, SVG Export Plug-In . SVG Version: 6.00 Build 0)  -->
<svg version="1.1" id="图层_1" xmlns:serif="http://www.serif.com/"
	 xmlns="http://www.w3.org/2000/svg" xmlns:xlink="http://www.w3.org/1999/xlink" x="0px" y="0px" viewBox="0 0 1000 1000"
	 style="enable-background:new 0 0 1000 1000;" xml:space="preserve">
<style type="text/css">
	.st0{fill-rule:evenodd;clip-rule:evenodd;fill:#FFFFFF;}
	.st1{fill:#FFFFFF;}
</style>
<g transform="matrix(1,0,0,1,-79.3055,-322.599)">
	<g transform="matrix(1,0,0,1,-56.1287,-2565.32)">
		<g transform="matrix(1,0,0,1,0,675.092)">
			<g transform="matrix(0.969503,0,0,0.969503,3.37888,69.3723)">
				<g transform="matrix(0.267419,0,0,0.267419,136.209,2223.5)">
					<path class="st0" d="M430,2062.6l-85,42v-315.8l85-42V2062.6z M545.4,2005.6l-85,42v-315.8l84.9-42h0.1V2005.6z M575.8,1990.5
						v-315.8l85-42v315.8L575.8,1990.5z"/>
				</g>
				<g transform="matrix(0.267419,0,0,0.267419,136.209,2223.5)">
					<path class="st0" d="M315.4,2019.5v85L0,1948.5v-85L315.4,2019.5z M315.4,1904.1v85L0,1833.1v-85L315.4,1904.1z M315.4,1788.7
						v85L0,1717.7v-85L315.4,1788.7z"/>
				</g>
			</g>
			<g>
				<g transform="matrix(1.26258,0,0,1.26258,-294.674,502.516)">
					<path class="st1" d="M517.8,1679.1v100.1H569c24,0,39.4-10.8,39.4-28c0-12.7-7.9-22.7-20.1-25.3c10.4-3,17-11.4,17-21.6
						c0-15.4-15-25.3-38.4-25.3H517.8z M547.3,1701.4h18c5.9,0,9.6,3.1,9.6,8.3c0,5.3-3.7,8.7-9.6,8.7h-18V1701.4z M547.3,1738.6h18
						c7.6,0,12.3,3.4,12.3,8.8c0,5.9-4.7,9.6-12.3,9.6h-18V1738.6z"/>
				</g>
				<g transform="matrix(1.26258,0,0,1.26258,-294.674,502.516)">
					<rect x="626.3" y="1679.1" class="st1" width="29.7" height="100.1"/>
				</g>
				<g transform="matrix(1.26258,0,0,1.26258,-297.825,502.516)">
					<path class="st1" d="M753.4,1702.8v-23.7h-76.9v23.7h23.5v76.4h29.8v-76.4H753.4z"/>
				</g>
				<g transform="matrix(1,0,0,1,-3.62618,0)">
					<g transform="matrix(1.26258,0,0,1.26258,-295.657,502.516)">
						<path class="st1" d="M818.9,1678.2c-31,0-53.8,21.6-53.8,50.7c0,29.6,22.4,51.5,52.8,51.5c15.1,0,31.6-7.6,42.4-19.3
							l-17.1-18.3c-6.9,7-16.1,11.6-23.8,11.6c-13.6,0-23.8-11.1-23.8-25.8c0-14.7,10.3-25.7,23.8-25.7c8.3,0,17.6,5.3,23.8,13.3
							l17.1-20.3C850.1,1685.1,834,1678.2,818.9,1678.2z"/>
					</g>
					<g transform="matrix(1.26258,0,0,1.26258,-295.657,502.516)">
						<path class="st1" d="M922.2,1678.2c-31.4,0-54.5,21.4-54.5,50.8c0,29.6,23.1,51.4,54.5,51.4c31.4,0,54.5-22,54.5-51.4
							C976.8,1699.8,953.6,1678.2,922.2,1678.2z M922.7,1703.1c13.1,0,23.7,11,23.7,26.1c0,15.1-10.6,26.4-23.7,26.4
							c-13.1,0-24.6-11.3-24.6-26.4C898.1,1714.1,909.4,1703.1,922.7,1703.1z"/>
					</g>
					<g transform="matrix(1.26258,0,0,1.26258,-295.657,502.516)">
						<rect x="993.6" y="1679.1" class="st1" width="29.7" height="100.1"/>
					</g>
					<g transform="matrix(1.26258,0,0,1.26258,-295.985,502.516)">
						<path class="st1" d="M1136.5,1779.2v-100.1h-27.1v56l-42.4-56h-25.4v100.1h27.3v-55.7l42.4,55.7H1136.5z"/>
					</g>
				</g>
			</g>
			<g transform="matrix(0.728286,0,0,0.728286,-67.9073,1275.13)">
				<path class="st1" d="M635.4,2097.2V2054h-15.1l-9.4,22.6l-9.4-22.6h-15.1v43.2h12.5v-23.7l7.4,19.5h9.4l7.4-19.5v23.7H635.4z"/>
				<path class="st1" d="M673.5,2091.1l2.2,6.1h15.2l-17.6-43.2h-14.7l-18.3,43.2H655l2.2-6.1H673.5z M670,2080.9h-9l4.6-12.6
					L670,2080.9z"/>
				<path class="st1" d="M722.5,2074.5v10c-2.1,0.9-4.2,1.4-5.7,1.4c-5.6,0-9.7-4.3-9.7-10.3c0-5.9,4.1-10.2,9.6-10.2
					c3.6,0,7.8,1.8,10.7,4.6l8.1-9.8c-4.6-4.1-12-6.7-18.7-6.7c-14.1,0-24.4,9.3-24.4,22.1c0,12.8,9.9,22.2,23.4,22.2
					c6.2,0,14.1-2.3,18.9-5.6v-17.8H722.5z"/>
				<path class="st1" d="M772,2091.1l2.2,6.1h15.2l-17.6-43.2h-14.7l-18.3,43.2h14.7l2.2-6.1H772z M768.5,2080.9h-9l4.6-12.6
					L768.5,2080.9z"/>
				<path class="st1" d="M831.7,2063v-8.9h-38.5v11h19.4l-20.2,23.3v8.9h39.7v-11h-20.6L831.7,2063z"/>
				<rect x="838.9" y="2054" class="st1" width="14.3" height="43.2"/>
				<path class="st1" d="M903.8,2097.2V2054h-13v22.2l-17.1-22.2h-12v43.2h13v-22.1l17,22.1H903.8z"/>
				<path class="st1" d="M949,2064.9V2054h-36.6v43.2h37.1v-10.8h-22.8v-5.4H947v-10.9h-20.2v-5.3H949z"/>
			</g>
		</g>
	</g>
</g>
</svg>
