<?xml version="1.0" encoding="UTF-8" standalone="no"?>
<!DOCTYPE svg PUBLIC "-//W3C//DTD SVG 1.1//EN" "http://www.w3.org/Graphics/SVG/1.1/DTD/svg11.dtd">
<svg width="100%" height="100%" viewBox="0 0 1071 1071" version="1.1" xmlns="http://www.w3.org/2000/svg" xmlns:xlink="http://www.w3.org/1999/xlink" xml:space="preserve" xmlns:serif="http://www.serif.com/" style="fill-rule:evenodd;clip-rule:evenodd;stroke-linejoin:round;stroke-miterlimit:1.41421;">
    <g transform="matrix(1,0,0,1,-744.602,-1025.6)">
        <g transform="matrix(1,0,0,1,0,841)">
            <g transform="matrix(1,0,0,1,0,-841)">
                <path d="M1280.87,1025.6C1284.61,1025.61 1288.35,1025.65 1292.09,1025.74C1299.52,1025.9 1306.95,1026.22 1314.36,1026.69C1334.6,1027.97 1354.76,1030.4 1374.72,1033.97C1395.68,1037.72 1416.42,1042.73 1436.78,1048.96C1457.38,1055.27 1477.6,1062.84 1497.28,1071.6C1524.4,1083.66 1550.5,1098.01 1575.24,1114.4C1600.49,1131.14 1624.32,1150.01 1646.4,1170.75C1668.65,1191.66 1689.13,1214.45 1707.53,1238.82C1725.84,1263.08 1742.1,1288.89 1756.05,1315.9C1767.76,1338.59 1777.85,1362.12 1786.18,1386.25C1794.38,1409.96 1800.89,1434.25 1805.65,1458.88C1812.16,1492.51 1815.4,1526.75 1815.4,1561C1815.4,1585.46 1813.75,1609.93 1810.43,1634.16C1806.78,1660.84 1801.11,1687.23 1793.46,1713.05C1785.49,1739.96 1775.39,1766.24 1763.27,1791.57C1749.55,1820.24 1733.27,1847.68 1714.69,1873.47C1695.9,1899.55 1674.77,1923.94 1651.63,1946.26C1627.52,1969.53 1601.24,1990.54 1573.22,2008.93C1545.68,2027.01 1516.46,2042.54 1486.06,2055.24C1452.61,2069.22 1417.72,2079.76 1382.12,2086.65C1348.78,2093.1 1314.82,2096.34 1280.87,2096.4C1246.89,2096.45 1212.9,2093.32 1179.52,2086.97C1143.89,2080.19 1108.95,2069.75 1075.44,2055.87C1045,2043.26 1015.73,2027.81 988.128,2009.81C960.057,1991.51 933.708,1970.57 909.523,1947.38C886.325,1925.12 865.121,1900.8 846.253,1874.77C827.6,1849.04 811.234,1821.66 797.432,1793.03C785.244,1767.75 775.057,1741.51 767.007,1714.62C759.287,1688.85 753.534,1662.48 749.801,1635.83C746.328,1611.05 744.602,1586.03 744.602,1561C744.602,1527.31 747.738,1493.62 754.033,1460.52C758.722,1435.87 765.158,1411.55 773.282,1387.81C781.549,1363.64 791.563,1340.08 803.211,1317.35C817.078,1290.29 833.26,1264.42 851.508,1240.1C869.994,1215.47 890.598,1192.42 913.016,1171.3C935.064,1150.53 958.864,1131.62 984.088,1114.85C1008.8,1098.41 1034.88,1084.04 1061.97,1071.93C1081.64,1063.14 1101.85,1055.54 1122.43,1049.2C1142.78,1042.94 1163.5,1037.9 1184.45,1034.12C1204.4,1030.52 1224.56,1028.06 1244.79,1026.74C1252.2,1026.26 1259.62,1025.93 1267.05,1025.76C1270.79,1025.67 1274.53,1025.62 1278.27,1025.61C1279.13,1025.6 1280,1025.6 1280.87,1025.6ZM1279.24,1093.91C1269.23,1093.94 1259.21,1094.26 1249.22,1094.91C1231.57,1096.06 1213.99,1098.2 1196.59,1101.34C1178.33,1104.64 1160.27,1109.03 1142.54,1114.49C1124.59,1120.01 1106.99,1126.63 1089.85,1134.29C1065.14,1145.33 1041.41,1158.54 1018.99,1173.69C998.63,1187.45 979.355,1202.82 961.392,1219.59C941.049,1238.58 922.396,1259.38 905.724,1281.67C891.102,1301.21 878.009,1321.9 866.612,1343.49C855.56,1364.42 846.111,1386.2 838.379,1408.57C831.554,1428.31 826.074,1448.52 821.976,1469.01C815.971,1499.02 812.962,1529.63 812.914,1560.24C812.88,1582.35 814.386,1604.46 817.452,1626.36C820.903,1651.01 826.339,1675.37 833.7,1699.14C840.442,1720.92 848.794,1742.18 858.66,1762.73C871.27,1788.99 886.358,1814.06 903.632,1837.51C919.582,1859.17 937.396,1879.46 956.808,1898.08C977.925,1918.33 1000.93,1936.61 1025.44,1952.59C1049.51,1968.29 1075.04,1981.76 1101.59,1992.76C1130.34,2004.67 1160.3,2013.67 1190.86,2019.58C1220.46,2025.31 1250.61,2028.13 1280.76,2028.09C1310.4,2028.04 1340.04,2025.21 1369.14,2019.58C1400.17,2013.58 1430.57,2004.4 1459.73,1992.21C1486.67,1980.95 1512.55,1967.14 1536.92,1951.04C1560.94,1935.18 1583.49,1917.09 1604.2,1897.1C1624.07,1877.94 1642.24,1857.02 1658.44,1834.67C1675.13,1811.66 1689.72,1787.12 1701.95,1761.45C1712.07,1740.22 1720.57,1718.23 1727.35,1695.72C1734.32,1672.56 1739.47,1648.86 1742.75,1624.9C1745.72,1603.23 1747.15,1581.36 1747.08,1559.49C1747.04,1544.53 1746.29,1529.57 1744.82,1514.68C1743.26,1498.87 1740.9,1483.14 1737.74,1467.58C1733.34,1445.94 1727.39,1424.63 1719.96,1403.85C1712.39,1382.69 1703.28,1362.08 1692.73,1342.24C1680.61,1319.45 1666.59,1297.67 1650.88,1277.18C1634.94,1256.4 1617.26,1236.95 1598.09,1219.11C1579.08,1201.4 1558.6,1185.28 1536.92,1170.95C1515.31,1156.68 1492.53,1144.21 1468.86,1133.72C1451.69,1126.11 1434.06,1119.54 1416.09,1114.07C1398.34,1108.66 1380.26,1104.33 1361.98,1101.09C1344.31,1097.96 1326.46,1095.85 1308.55,1094.77C1298.79,1094.18 1289.02,1093.91 1279.24,1093.91ZM1367.14,1431.19L1367.14,1498.94L1314.52,1498.94L1314.52,1690.81L1246.41,1690.81L1246.41,1498.94L1192.86,1498.94L1192.86,1431.19L1367.14,1431.19ZM1082.36,1431.53C1123.84,1431.53 1159.1,1467.14 1159.1,1508.62C1159.1,1526.26 1156.43,1542.5 1146.41,1555.3C1164.04,1569.47 1175.79,1591.25 1175.79,1614.76C1175.79,1655.9 1140.88,1690.81 1099.74,1690.81L963.013,1690.81L963.013,1431.53L1082.36,1431.53ZM1606.7,1652.77C1583.2,1676.27 1550.75,1690.81 1514.92,1690.81C1443.28,1690.81 1385.11,1632.65 1385.11,1561C1385.11,1489.35 1443.28,1431.19 1514.92,1431.19C1550.75,1431.19 1583.2,1445.73 1606.7,1469.23L1558.04,1517.88C1547,1506.84 1531.76,1500.01 1514.92,1500.01C1481.26,1500.01 1453.93,1527.34 1453.93,1561C1453.93,1594.66 1481.26,1621.99 1514.92,1621.99C1531.76,1621.99 1547,1615.16 1558.04,1604.12L1606.7,1652.77ZM1085.56,1634.81C1098.01,1634.81 1108.03,1624.78 1108.03,1612.34C1108.03,1599.89 1097.32,1589.87 1085.56,1589.87L1031.12,1589.87L1031.12,1634.81L1085.56,1634.81ZM1068.87,1532.82C1081.32,1532.82 1091.35,1522.8 1091.35,1510.35C1091.35,1497.91 1081.32,1487.88 1068.87,1487.88L1031.12,1487.88L1031.12,1532.82L1068.87,1532.82Z"/>
            </g>
        </g>
    </g>
</svg>
